<?xml version="1.0" standalone="no"?>
<!DOCTYPE svg PUBLIC "-//W3C//DTD SVG 20010904//EN"
 "http://www.w3.org/TR/2001/REC-SVG-20010904/DTD/svg10.dtd">
<svg version="1.0" xmlns="http://www.w3.org/2000/svg"
 width="160.000000pt" height="100.000000pt" viewBox="0 0 160.000000 100.000000"
 preserveAspectRatio="xMidYMid meet">

<g transform="translate(0.000000,100.000000) scale(0.100000,-0.100000)"
fill="#000000" stroke="none">
<path d="M880 667 c-15 -30 -43 -64 -67 -83 l-42 -32 42 -39 c23 -21 53 -46
67 -56 l25 -18 -24 12 c-14 6 -46 31 -71 55 l-47 43 -71 -16 c-84 -20 -90 -34
-39 -86 51 -50 101 -71 158 -64 54 7 113 33 104 47 -3 6 0 7 8 4 18 -7 55 43
68 91 14 49 -4 105 -49 153 l-37 41 -25 -52z"/>
<path d="M227 263 c-11 -10 -8 -213 3 -234 14 -25 46 -27 34 -1 -5 9 -10 68
-12 130 -3 103 -8 123 -25 105z"/>
<path d="M968 264 c-5 -4 -8 -63 -8 -131 l0 -123 58 0 c76 0 92 16 92 93 0 71
-15 87 -80 87 l-49 0 -3 41 c-2 22 -6 37 -10 33z m100 -106 c17 -17 15 -103
-2 -117 -8 -7 -30 -11 -48 -9 -32 3 -33 4 -36 56 -2 31 2 60 9 68 14 17 61 18
77 2z"/>
<path d="M0 135 l0 -125 90 0 c73 0 90 3 90 15 0 12 -15 15 -76 15 l-75 0 3
43 3 42 53 3 c28 2 52 7 52 12 0 5 -24 10 -52 12 l-53 3 -3 38 -3 37 75 0 c61
0 76 3 76 15 0 12 -17 15 -90 15 l-90 0 0 -125z"/>
<path d="M513 233 c-9 -3 -13 -32 -13 -98 0 -122 2 -125 58 -125 48 0 49 15 2
22 -24 3 -25 7 -28 71 l-3 67 31 0 c16 0 30 5 30 10 0 6 -13 10 -29 10 -24 0
-30 5 -33 23 -2 14 -8 22 -15 20z"/>
<path d="M1300 191 c-31 -10 -13 -19 45 -23 33 -2 41 -7 43 -25 3 -21 -1 -23
-45 -23 -57 0 -73 -12 -73 -56 0 -44 19 -56 87 -52 l58 3 3 70 c2 46 -2 76
-10 88 -15 20 -72 30 -108 18z m90 -127 l0 -35 -42 3 c-32 2 -44 8 -46 21 -7
35 6 47 48 47 39 0 40 -1 40 -36z"/>
<path d="M327 175 c-20 -20 -30 -68 -22 -105 10 -47 30 -60 92 -60 39 0 53 4
51 12 -3 8 -20 11 -46 10 -34 -3 -43 1 -57 22 -24 36 -12 46 56 46 55 0 59 2
59 23 0 43 -27 67 -75 67 -25 0 -50 -6 -58 -15z m97 -27 c15 -24 5 -30 -47
-26 -42 3 -44 4 -36 26 7 19 15 23 40 20 18 -2 37 -11 43 -20z"/>
<path d="M630 99 c0 -72 3 -89 15 -89 12 0 15 15 15 74 0 77 5 86 51 86 10 0
19 4 19 10 0 5 -22 9 -50 9 l-50 -2 0 -88z"/>
<path d="M766 168 c-9 -12 -16 -43 -16 -68 0 -67 20 -90 79 -90 64 0 81 19 81
93 0 71 -15 87 -80 87 -39 0 -52 -4 -64 -22z m102 -10 c16 -16 16 -100 0 -116
-7 -7 -24 -12 -38 -12 -37 0 -50 18 -50 70 0 52 13 70 50 70 14 0 31 -5 38
-12z"/>
<path d="M1150 99 c0 -71 3 -89 15 -89 11 0 15 17 17 73 3 72 3 72 36 82 47
14 39 25 -18 24 l-50 -2 0 -88z"/>
<path d="M1472 178 c-7 -7 -12 -24 -12 -40 0 -30 23 -48 63 -48 14 0 30 -7 37
-15 21 -25 -6 -47 -54 -43 -24 1 -41 -2 -44 -10 -6 -19 103 -16 122 4 35 34
16 69 -45 87 -33 10 -44 18 -44 32 0 17 8 21 48 23 26 2 47 7 47 13 0 13 -104
11 -118 -3z"/>
</g>
</svg>
